<svg class="logo" xmlns="http://www.w3.org/2000/svg" viewBox="0 0 252 235.79">
<title>Broadway Bicycle</title>
<g class="logo-anim logo__text">
<path
  class="cls-1"
  d="M75.11,121.66l4-5.81c2.32-3.4,3.79-4.51,6.52-5a8.23,8.23,0,0,1,5.87,1.29,6,6,0,0,1,2.7,4,.89.89,0,0,0,1.23.76,6.25,6.25,0,0,1,5.94.86,8.6,8.6,0,0,1,3.54,5.95c.28,2.31-.23,3.87-2.13,6.65L98,137.32a1.19,1.19,0,0,1-1.65.31L75.42,123.31A1.19,1.19,0,0,1,75.11,121.66Zm13.09-3.81c-1.17-.8-2.36-.45-3.37,1l-.62.91a1.15,1.15,0,0,0,.36,1.58l1.71,1.17a1.1,1.1,0,0,0,1.54-.15l.56-.82C89.53,119.87,89.47,118.71,88.2,117.85Zm9,5.33c-1.3-.89-2.67-.52-3.73,1l-.86,1.25a1.19,1.19,0,0,0,.31,1.65l2,1.38a1.19,1.19,0,0,0,1.65-.31l.69-1C98.53,125.42,98.48,124,97.24,123.18Z"
  transform="translate(-54 -62.1)"/>
<path
  class="cls-1"
  d="M94.11,97.27l4.72-4.11c3.14-2.73,5.59-3.65,8.78-3.34a10.23,10.23,0,0,1,6.63,3.38,9.78,9.78,0,0,1,2.14,9.22,1.12,1.12,0,0,0,.8,1.42l7.92,1.94c.64.16.75.63.26,1.06l-4.29,3.74a2.33,2.33,0,0,1-2,.42l-6.62-2.13c-.62-.2-.78,0-.35.53l3.68,4.23a1.19,1.19,0,0,1-.12,1.68l-3.32,2.89a1.19,1.19,0,0,1-1.68-.12L94,98.94A1.19,1.19,0,0,1,94.11,97.27Zm15.07.44a3.73,3.73,0,0,0-5.37-.28l-.61.53c-.34.29-.26.93.17,1.43l3.44,3.95c.43.49,1.06.65,1.41.35l.63-.55A3.77,3.77,0,0,0,109.18,97.71Z"
  transform="translate(-54 -62.1)"/>
<path class="cls-1" d="M149.16,79.57a14.51,14.51,0,1,1-19.23-7.41A14.57,14.57,0,0,1,149.16,79.57Zm-20.35,9a7.74,7.74,0,1,0,14.11-6.33,7.74,7.74,0,1,0-14.11,6.33Z" transform="translate(-54 -62.1)"/>
<path
  class="cls-1"
  d="M170.76,89.11l-1-8.29a1.19,1.19,0,0,0-1.32-1l-2.43.29a1.19,1.19,0,0,0-1,1.32l1,8.29a1.19,1.19,0,0,1-1,1.32l-4.37.53a1.19,1.19,0,0,1-1.32-1l-1-8.29a10.53,10.53,0,0,0-.59-2.28l-1.65-4c-.25-.61-.05-1.15.44-1.21a.89.89,0,0,0,.78-1l-.11-.89A9.2,9.2,0,1,1,175.4,71l2.09,17.27a1.19,1.19,0,0,1-1,1.32l-4.37.53A1.19,1.19,0,0,1,170.76,89.11Zm-4.88-20.2c-1.53.18-2.26,1.36-2,3.3l.1.78c.05.43.62.72,1.27.64l2.43-.29c.65-.08,1.14-.49,1.08-.93l-.1-.78C168.4,69.65,167.45,68.72,165.88,68.91Z"
  transform="translate(-54 -62.1)"/>
<path
  class="cls-1"
  d="M188.28,62.12l4.38.63c5.39.77,8.44,2.34,11,5.65A13.86,13.86,0,0,1,200.73,88c-3.37,2.42-6.48,3-12,2.19l-4.34-.62a1.19,1.19,0,0,1-1-1.34l3.59-25.11A1.19,1.19,0,0,1,188.28,62.12Zm3.7,22a7.2,7.2,0,0,0,7.66-6.38c.55-3.88-1.63-7-5.58-8.14a1.06,1.06,0,0,0-1.33.92L191,82.85A1.07,1.07,0,0,0,192,84.11Z"
  transform="translate(-54 -62.1)"/>
<path
  class="cls-1"
  d="M223.14,99.13l.47-9.44c0-.66-.33-.82-.81-.38l-6.93,6.47a1.91,1.91,0,0,1-1.95.31l-2.11-1a1.41,1.41,0,0,1-.74-1.64l7.29-24.59a1,1,0,0,1,1.42-.64l4,1.82a1.36,1.36,0,0,1,.7,1.62L220.68,83c-.21.62,0,.77.5.32l7.62-7.08c.48-.45.85-.28.82.38L229.16,87c0,.66.22.73.56.17l6.09-10.25a1.35,1.35,0,0,1,1.69-.52l3.92,1.81a1,1,0,0,1,.44,1.5L228,101.29a1.4,1.4,0,0,1-1.72.5l-2.15-1A1.9,1.9,0,0,1,223.14,99.13Z"
  transform="translate(-54 -62.1)"/>
<path
  class="cls-1"
  d="M243.88,113.52l5.48-6.31a1.19,1.19,0,0,0-.12-1.68l-1.85-1.6a1.19,1.19,0,0,0-1.68.12l-5.48,6.31a1.19,1.19,0,0,1-1.68.12l-3.32-2.89a1.19,1.19,0,0,1-.12-1.68l5.48-6.31a10.53,10.53,0,0,0,1.29-2l1.88-3.93c.28-.59.81-.81,1.19-.49a.89.89,0,0,0,1.26-.09l.59-.68a9.2,9.2,0,1,1,13.61,12.36L249,118a1.19,1.19,0,0,1-1.68.12L244,115.2A1.19,1.19,0,0,1,243.88,113.52ZM255.6,96.36c-1.16-1-2.53-.77-3.81.71l-.52.6c-.29.33-.12.95.38,1.38l1.85,1.6c.5.43,1.13.51,1.41.18l.52-.6C256.74,98.72,256.79,97.39,255.6,96.36Z"
  transform="translate(-54 -62.1)"/>
<path
  class="cls-1"
  d="M255.58,126.31l8.12-5.72a6,6,0,0,0,1.54-1.73l7.08-13a.68.68,0,0,1,1.25-.07l2.82,4a2,2,0,0,1,.07,2l-3.56,5.91c-.34.56-.09.92.56.8l6.85-1.26a2,2,0,0,1,1.85.76l2.75,3.91a.68.68,0,0,1-.49,1.15l-14.67,2.26a6,6,0,0,0-2.15.86l-8.12,5.72a1.19,1.19,0,0,1-1.66-.29l-2.53-3.6A1.19,1.19,0,0,1,255.58,126.31Z"
  transform="translate(-54 -62.1)"/>
</g>
<g class="logo-anim logo__text">
<path
  class="cls-1"
  d="M117.82,247.09l5.66,4.19c3.31,2.45,4.37,4,4.72,6.7a8.23,8.23,0,0,1-1.51,5.81,6,6,0,0,1-4.07,2.55.89.89,0,0,0-.8,1.2,6.25,6.25,0,0,1-1.08,5.91,8.61,8.61,0,0,1-6.07,3.32c-2.32.2-3.86-.37-6.57-2.38l-6.77-5a1.19,1.19,0,0,1-.25-1.66l15.08-20.39A1.19,1.19,0,0,1,117.82,247.09Zm-2.33,22.06c.94-1.27.61-2.65-.89-3.76l-1.22-.9a1.19,1.19,0,0,0-1.66.25l-1.45,2a1.19,1.19,0,0,0,.25,1.66l1,.73C113.2,270.36,114.6,270.36,115.49,269.15Zm5.66-8.84c.84-1.14.54-2.34-.9-3.4l-.89-.66a1.15,1.15,0,0,0-1.59.3l-1.23,1.67a1.11,1.11,0,0,0,.1,1.55l.8.59C119.08,261.57,120.23,261.54,121.15,260.31Z"
  transform="translate(-54 -62.1)"/>
<path class="cls-1" d="M126.27,284.15l10.67-23a1.19,1.19,0,0,1,1.58-.58l4,1.85a1.19,1.19,0,0,1,.58,1.58l-10.67,23a1.19,1.19,0,0,1-1.58.58l-4-1.85A1.19,1.19,0,0,1,126.27,284.15Z" transform="translate(-54 -62.1)"/>
<path
  class="cls-1"
  d="M159.29,296.7a13.18,13.18,0,0,1-3.4-.43,14.53,14.53,0,0,1,7-28.22,12.59,12.59,0,0,1,3.05,1.13,1.68,1.68,0,0,1,.74,1.77l-1,4.16a.8.8,0,0,1-1.28.52,9.06,9.06,0,0,0-2.72-1.12A8,8,0,1,0,158,290a8.54,8.54,0,0,0,2.8.26.8.8,0,0,1,.9,1l-1,4.12A1.69,1.69,0,0,1,159.29,296.7Z"
  transform="translate(-54 -62.1)"/>
<path
  class="cls-1"
  d="M177.51,296.73l-.16-9.93a6,6,0,0,0-.56-2.24L170,271.37a.68.68,0,0,1,.64-1.07l4.9-.08a2,2,0,0,1,1.68,1.06l2.88,6.26c.27.6.71.59,1,0l2.81-6.37a2,2,0,0,1,1.67-1.11l4.77-.08A.68.68,0,0,1,191,271l-6.38,13.4a6,6,0,0,0-.49,2.26l.16,9.93a1.19,1.19,0,0,1-1.17,1.21l-4.4.07A1.19,1.19,0,0,1,177.51,296.73Z"
  transform="translate(-54 -62.1)"/>
<path
  class="cls-1"
  d="M216.76,292.75a13.13,13.13,0,0,1-3.22,1.17,14.54,14.54,0,0,1-6.72-28.28,12.56,12.56,0,0,1,3.24-.39,1.68,1.68,0,0,1,1.47,1.24l1,4.16a.8.8,0,0,1-.9,1,9.06,9.06,0,0,0-2.93.25,8,8,0,1,0,3.89,15.45,8.55,8.55,0,0,0,2.61-1.05.8.8,0,0,1,1.28.52l1,4.12A1.69,1.69,0,0,1,216.76,292.75Z"
  transform="translate(-54 -62.1)"/>
<path
  class="cls-1"
  d="M227.78,286.92l-11.29-22.71a1.19,1.19,0,0,1,.54-1.59l3.94-2a1.19,1.19,0,0,1,1.59.54L231,278.13a1.19,1.19,0,0,0,1.59.54l4.43-2.2a1.19,1.19,0,0,1,1.59.54l1.81,3.64a1.19,1.19,0,0,1-.54,1.59l-10.49,5.22A1.19,1.19,0,0,1,227.78,286.92Z"
  transform="translate(-54 -62.1)"/>
<path
  class="cls-1"
  d="M248.86,275.19l-5.24-6.61a10.71,10.71,0,0,0-1.69-1.64l-3.46-2.55c-.53-.39-.65-.95-.27-1.25a1.07,1.07,0,0,0-.05-1.47l-5-6.35a1.19,1.19,0,0,1,.19-1.67l9.74-7.72a1.19,1.19,0,0,1,1.67.19l2.53,3.19A1.19,1.19,0,0,1,247,251l-4.43,3.51a1.19,1.19,0,0,0-.19,1.67l1,1.3a1.19,1.19,0,0,0,1.67.19l3.9-3.1a1.66,1.66,0,0,1,1.9,0l3.51,2.52a.85.85,0,0,1,0,1.43l-5.34,4.23a1.19,1.19,0,0,0-.19,1.67l1.24,1.56a1.19,1.19,0,0,0,1.67.19l4.43-3.51a1.19,1.19,0,0,1,1.67.19l2.53,3.19a1.19,1.19,0,0,1-.19,1.67l-9.74,7.72A1.19,1.19,0,0,1,248.86,275.19Z"
  transform="translate(-54 -62.1)"/>
</g>
<g class="logo-anim logo__mark">
<path
  class="cls-1"
  d="M289.25,181.92a3.37,3.37,0,0,1,0-3.81l16.36-21.89c.79-1.05.36-1.9-1-1.9h-49.2a3.7,3.7,0,0,1-3.2-2.23,77.45,77.45,0,0,0-144.5,0,3.7,3.7,0,0,1-3.2,2.23H55.35c-1.31,0-1.74.85-1,1.9l16.36,21.89a3.37,3.37,0,0,1,0,3.81L54.39,203.8c-.79,1.05-.36,1.9,1,1.9h49.2a3.7,3.7,0,0,1,3.2,2.23,77.45,77.45,0,0,0,144.5,0,3.7,3.7,0,0,1,3.2-2.23h49.2c1.31,0,1.74-.85,1-1.9ZM103.4,191.48a2,2,0,0,1-2,2.34H79.06c-1.31,0-1.74-.85-1-1.9l7.48-10a3.37,3.37,0,0,0,0-3.81l-7.48-10c-.79-1.05-.36-1.9,1-1.9h22.35a2,2,0,0,1,2,2.34,76.09,76.09,0,0,0,0,22.94Zm109.36,45.35a.54.54,0,0,1-.47-.37l-11.07-31.59c-.12-.35,0-.48.36-.29l4.93,3a3.29,3.29,0,0,1,.93.93l13.4,22.1a.78.78,0,0,1,0,.69A65.74,65.74,0,0,1,212.75,236.84ZM201.52,242a.78.78,0,0,1-.59-.41L184.73,209a2.15,2.15,0,0,1-.14-1.27l2.71-11.07a.47.47,0,0,1,.74-.31l9.16,5.56a2.2,2.2,0,0,1,.81,1l12.15,34.68a.79.79,0,0,1-.11.7A65.24,65.24,0,0,1,201.52,242ZM188.61,245a.77.77,0,0,1-.49-.52L182,219.57a3.29,3.29,0,0,1,0-1.32l1.37-5.59c.09-.36.3-.39.46-.05l14.78,29.69a.54.54,0,0,1-.08.63A65.19,65.19,0,0,1,188.61,245Zm-8.61.58c-1.45,0-2.88-.06-4.31-.16a.54.54,0,0,1-.2-.58l5-20.31c.09-.36.23-.36.32,0l4.95,20.21a.56.56,0,0,1-.2.59C183.71,245.51,181.87,245.61,180,245.61Zm-17-2.24a.54.54,0,0,1-.08-.61l14.51-30.16c.16-.34.37-.32.46,0l1.37,5.6a3.29,3.29,0,0,1,0,1.32l-6.15,25.1a.78.78,0,0,1-.48.52A65.37,65.37,0,0,1,163,243.37Zm-11.59-4.31a.79.79,0,0,1-.14-.72l11.56-34.46a2.15,2.15,0,0,1,.8-1l9.75-5.91a.47.47,0,0,1,.74.31l2.55,10.41a2.2,2.2,0,0,1-.13,1.27L160.6,242.08a.8.8,0,0,1-.59.42A65.17,65.17,0,0,1,151.41,239.06Zm-11.28-7a.77.77,0,0,1,0-.73l13.32-21.95a3.28,3.28,0,0,1,.93-.93l4.92-3c.32-.19.48-.06.37.29l-10.55,31.45a.54.54,0,0,1-.51.39A65.66,65.66,0,0,1,140.13,232.09Zm7.12-108.89a.54.54,0,0,1,.47.37l11.07,31.59c.12.35,0,.48-.36.29l-4.93-3a3.28,3.28,0,0,1-.93-.93l-13.4-22.1a.78.78,0,0,1,0-.69A65.66,65.66,0,0,1,147.25,123.2Zm11.23-5.14a.79.79,0,0,1,.59.41L175.27,151a2.15,2.15,0,0,1,.14,1.27l-2.71,11.07a.47.47,0,0,1-.74.31l-9.16-5.56a2.2,2.2,0,0,1-.81-1l-12.15-34.68a.79.79,0,0,1,.11-.69A65.13,65.13,0,0,1,158.48,118.06ZM171.39,115a.77.77,0,0,1,.48.52L178,140.47a3.29,3.29,0,0,1,0,1.32l-1.37,5.59c-.09.36-.3.39-.46.05l-14.78-29.69a.54.54,0,0,1,.08-.63A65.24,65.24,0,0,1,171.39,115Zm8.61-.58c1.45,0,2.88.06,4.31.16a.54.54,0,0,1,.2.58l-5,20.31c-.09.36-.23.36-.32,0l-4.95-20.21a.56.56,0,0,1,.2-.59C176.29,114.52,178.13,114.42,180,114.42Zm17,2.24a.54.54,0,0,1,.08.61l-14.51,30.16c-.16.34-.37.32-.46,0l-1.37-5.6a3.29,3.29,0,0,1,0-1.32l6.15-25.1a.78.78,0,0,1,.48-.52A65.28,65.28,0,0,1,197,116.66ZM208.59,121a.79.79,0,0,1,.14.72l-11.56,34.46a2.15,2.15,0,0,1-.8,1l-9.75,5.91a.47.47,0,0,1-.74-.31l-2.55-10.41a2.2,2.2,0,0,1,.13-1.27L199.4,118a.79.79,0,0,1,.59-.42A65.22,65.22,0,0,1,208.59,121ZM239,208.6a.79.79,0,0,1-.72.14l-34.46-11.56a2.15,2.15,0,0,1-1-.8L197,186.64a.47.47,0,0,1,.31-.74l10.41-2.55a2.2,2.2,0,0,1,1.27.13l33.12,15.93a.79.79,0,0,1,.42.59A65.15,65.15,0,0,1,239,208.6Zm-7.7,11.27-22-13.32a3.28,3.28,0,0,1-.93-.93l-3-4.92c-.19-.32-.06-.48.29-.37l31.45,10.55a.54.54,0,0,1,.39.51,65.68,65.68,0,0,1-5.55,8.5A.77.77,0,0,1,231.35,219.87ZM180.84,200c-.16.34-.43.34-.6,0l-2.45-4.92a.75.75,0,0,1,.28-1l2.55-1.54a1.23,1.23,0,0,1,1.16,0l1.45.88a.76.76,0,0,1,.29,1Zm.91,9.36-1,3.89c-.09.36-.23.36-.32,0l-1-4a2.2,2.2,0,0,1,.13-1.27l.65-1.36c.16-.34.43-.34.6,0l.72,1.46A2.15,2.15,0,0,1,181.75,209.36Zm-2.81-5.42-.2.42c-.16.34-.37.32-.46,0l-1.23-5c-.09-.36,0-.39.14-.05l1.74,3.5A1.57,1.57,0,0,1,178.95,203.94Zm3.24-1.24,2.16-4.48c.16-.34.22-.32.13,0l-1.52,6.2c-.09.36-.3.39-.46.05l-.3-.59A1.57,1.57,0,0,1,182.18,202.7ZM173.63,188A10.19,10.19,0,1,1,188,186.38,10.19,10.19,0,0,1,173.63,188Zm-44.92,32.91a65.66,65.66,0,0,1-5.54-8.12.54.54,0,0,1,.37-.47l31.59-11.07c.35-.12.48,0,.29.36l-3,4.93a3.29,3.29,0,0,1-.93.93l-22.1,13.4A.78.78,0,0,1,128.72,220.89Zm-6.31-10.7a.79.79,0,0,1-.7-.11,65.18,65.18,0,0,1-3.67-8.54.78.78,0,0,1,.41-.59L151,184.75a2.15,2.15,0,0,1,1.27-.14l11.07,2.71a.47.47,0,0,1,.31.74l-5.56,9.16a2.2,2.2,0,0,1-1,.81ZM115,188.63a.77.77,0,0,1,.52-.49L140.45,182a3.28,3.28,0,0,1,1.32,0l5.59,1.37c.36.09.39.3.05.46l-29.69,14.78a.54.54,0,0,1-.63-.08A65.24,65.24,0,0,1,115,188.63Zm6-37.2a.79.79,0,0,1,.72-.14l34.46,11.56a2.15,2.15,0,0,1,1,.8l5.91,9.75a.47.47,0,0,1-.31.74l-10.41,2.55a2.2,2.2,0,0,1-1.27-.13l-33.12-15.93a.79.79,0,0,1-.42-.59A65.16,65.16,0,0,1,121,151.43Zm7.7-11.27,22,13.32a3.29,3.29,0,0,1,.93.93l3,4.92c.19.32.06.48-.29.36l-31.45-10.55a.54.54,0,0,1-.39-.51,65.61,65.61,0,0,1,5.55-8.5A.77.77,0,0,1,128.65,140.16ZM155.5,182.5l.59-.3a1.57,1.57,0,0,1,1.22,0l4.48,2.16c.34.16.32.22,0,.13l-6.2-1.52C155.19,182.88,155.16,182.67,155.5,182.5Zm.2-4.2,5-1.23c.36-.09.39,0,.05.14l-3.5,1.74a1.57,1.57,0,0,1-1.22,0l-.42-.2C155.31,178.6,155.34,178.39,155.7,178.3Zm4.31,2.55c-.34-.16-.34-.43,0-.6l4.92-2.45a.75.75,0,0,1,1,.28l1.54,2.55a1.23,1.23,0,0,1,0,1.16l-.88,1.45a.76.76,0,0,1-1,.29Zm7.31-8.54-2-5.84c-.12-.35.06-.54.42-.43l5.21,1.75a.75.75,0,0,1,.48.88l-.71,2.89a1.23,1.23,0,0,1-.82.82l-1.65.4A.76.76,0,0,1,167.32,172.32Zm1.08-7.86-3.71-1.24a1.57,1.57,0,0,1-.87-.86l-.15-.44c-.12-.35,0-.48.36-.29l4.44,2.69C168.79,164.51,168.76,164.57,168.4,164.45Zm-4.34,5.76c.12.35.07.38-.13.06l-3.31-5.46c-.19-.32-.06-.48.29-.36l.63.21a1.57,1.57,0,0,1,.87.86Zm-3.51-8.39L159,161.3a2.15,2.15,0,0,1-1-.8l-2.07-3.42c-.19-.32-.09-.42.23-.23l3.5,2.12a2.2,2.2,0,0,1,.81,1l.5,1.42C161.09,161.75,160.91,161.94,160.55,161.82ZM152,179.65l1.36.65c.34.16.34.43,0,.6l-1.46.72a2.15,2.15,0,0,1-1.27.14l-3.89-1c-.36-.09-.36-.23,0-.32l4-1A2.2,2.2,0,0,1,152,179.65Zm4.82,24.2,2.12-3.5a2.2,2.2,0,0,1,1-.81l1.42-.5c.35-.12.54.06.43.42l-.52,1.54a2.15,2.15,0,0,1-.8,1l-3.42,2.07C156.75,204.27,156.64,204.17,156.84,203.85Zm4.77-7.86,2.69-4.44c.19-.32.26-.29.14.06l-1.24,3.71a1.57,1.57,0,0,1-.86.87l-.44.15C161.54,196.47,161.41,196.31,161.61,196Zm2.83,3.11.21-.63a1.57,1.57,0,0,1,.86-.87L170.2,196c.35-.12.38-.07.06.13l-5.46,3.31C164.48,199.59,164.31,199.46,164.43,199.1Zm2-4.36c-.35.12-.54-.06-.43-.42l1.75-5.21a.75.75,0,0,1,.88-.48l2.89.71a1.23,1.23,0,0,1,.82.82l.4,1.65a.76.76,0,0,1-.48.88ZM179.16,160c.16-.34.43-.34.6,0l2.45,4.92a.75.75,0,0,1-.28,1l-2.55,1.54a1.23,1.23,0,0,1-1.16,0l-1.45-.88a.76.76,0,0,1-.29-1Zm-.91-9.36,1-3.89c.09-.36.23-.36.32,0l1,4a2.2,2.2,0,0,1-.13,1.27l-.65,1.36c-.16.34-.43.34-.6,0l-.72-1.46A2.15,2.15,0,0,1,178.25,150.67Zm2.81,5.42.2-.42c.16-.34.37-.32.46,0l1.23,5c.09.36,0,.39-.14.05l-1.74-3.5A1.57,1.57,0,0,1,181.05,156.09Zm-3.24,1.24-2.16,4.48c-.16.34-.22.32-.13,0l1.52-6.2c.09-.36.3-.39.46-.05l.3.59A1.57,1.57,0,0,1,177.82,157.33Zm44.48-27.43a66,66,0,0,1,7,6.91.54.54,0,0,1-.27.54l-17.89,10.84c-.32.19-.42.09-.23-.23l10.79-17.78A.56.56,0,0,1,222.29,129.9Zm8.3,9.29a.78.78,0,0,1,.69,0,65.74,65.74,0,0,1,5.53,8.12.54.54,0,0,1-.37.47L204.86,158.8c-.35.12-.48,0-.29-.36l3-4.93a3.28,3.28,0,0,1,.93-.93Zm7,10.66a.79.79,0,0,1,.7.11,65.16,65.16,0,0,1,3.67,8.54.79.79,0,0,1-.41.59L209,175.28a2.15,2.15,0,0,1-1.27.14l-11.07-2.71a.47.47,0,0,1-.31-.74l5.56-9.16a2.2,2.2,0,0,1,1-.81Zm-38.39,33,3.5-1.74a1.57,1.57,0,0,1,1.22,0l.42.2c.34.16.32.37,0,.46l-5,1.23C198.89,183.05,198.87,183,199.21,182.82Zm-4.13-.6a.75.75,0,0,1-1-.28l-1.54-2.55a1.23,1.23,0,0,1,0-1.16l.88-1.45a.76.76,0,0,1,1-.29l5.58,2.68c.34.16.34.43,0,.6Zm9.43-4.69-.59.3a1.57,1.57,0,0,1-1.22,0l-4.48-2.16c-.34-.16-.32-.22,0-.13l6.2,1.52C204.81,177.15,204.84,177.36,204.5,177.53Zm-1.34-21.35-2.12,3.5a2.2,2.2,0,0,1-1,.81l-1.42.5c-.35.12-.54-.06-.43-.42l.52-1.54a2.15,2.15,0,0,1,.8-1l3.42-2.07C203.25,155.76,203.36,155.86,203.16,156.18ZM198.39,164l-2.69,4.44c-.19.32-.26.29-.14-.06l1.24-3.71a1.57,1.57,0,0,1,.86-.87l.44-.15C198.46,163.56,198.59,163.72,198.39,164Zm-2.83-3.11-.21.63a1.57,1.57,0,0,1-.86.87l-4.69,1.64c-.35.12-.38.07-.06-.13l5.46-3.31C195.52,160.45,195.68,160.58,195.57,160.93Zm-2,4.35c.35-.12.54.06.43.42l-1.75,5.21a.75.75,0,0,1-.88.48l-2.89-.71a1.23,1.23,0,0,1-.82-.82l-.4-1.65a.76.76,0,0,1,.48-.88Zm-4.92,26.07.71-2.89a1.23,1.23,0,0,1,.82-.82l1.65-.4a.76.76,0,0,1,.88.48l2,5.84c.12.35-.06.54-.42.43l-5.21-1.75A.75.75,0,0,1,188.62,191.36Zm3,4.22,3.71,1.24a1.57,1.57,0,0,1,.87.86l.15.44c.12.35,0,.48-.36.29l-4.44-2.69C191.21,195.52,191.24,195.46,191.6,195.58Zm4.34-5.76c-.12-.35-.07-.38.13-.06l3.31,5.46c.19.32.06.48-.29.36l-.63-.21a1.57,1.57,0,0,1-.87-.86Zm3.51,8.39,1.54.52a2.15,2.15,0,0,1,1,.8l2.07,3.42c.19.32.09.42-.23.23l-3.5-2.12a2.2,2.2,0,0,1-.81-1l-.5-1.42C198.91,198.28,199.09,198.09,199.45,198.21ZM208,180.38l-1.36-.65c-.34-.16-.34-.43,0-.6l1.46-.72a2.15,2.15,0,0,1,1.27-.14l3.89,1c.36.09.36.23,0,.32l-4,1A2.2,2.2,0,0,1,208,180.38Zm4.66-3.76c-.36-.09-.39-.3-.05-.46l29.69-14.78a.54.54,0,0,1,.63.08,65.21,65.21,0,0,1,2.1,9.94.77.77,0,0,1-.52.49L219.55,178a3.28,3.28,0,0,1-1.32,0ZM219.88,128a.77.77,0,0,1,0,.72l-13.32,22a3.29,3.29,0,0,1-.93.93l-4.92,3c-.32.19-.48.06-.37-.29l10.55-31.45a.54.54,0,0,1,.51-.39A65.65,65.65,0,0,1,219.88,128Zm-82.55,3,10.84,17.89c.19.32.09.42-.23.23l-17.78-10.79a.56.56,0,0,1-.27-.57,66,66,0,0,1,6.91-7A.54.54,0,0,1,137.32,131ZM116.65,163a.54.54,0,0,1,.61-.08l30.16,14.51c.34.16.32.37,0,.46l-5.6,1.37a3.29,3.29,0,0,1-1.32,0l-25.1-6.15a.78.78,0,0,1-.52-.48A65.29,65.29,0,0,1,116.65,163Zm-1.5,12.49,20.31,5c.36.09.36.23,0,.32l-20.2,4.95a.56.56,0,0,1-.59-.2c-.15-1.83-.25-3.67-.25-5.54,0-1.45.06-2.88.16-4.31A.54.54,0,0,1,115.14,175.51Zm15.53,47.72a.54.54,0,0,1,.27-.54l17.89-10.84c.32-.19.42-.09.23.23l-10.79,17.78a.56.56,0,0,1-.58.27A66,66,0,0,1,130.68,223.23Zm92,5.84-10.84-17.89c-.19-.32-.09-.42.23-.23l17.78,10.79a.56.56,0,0,1,.27.57,66,66,0,0,1-6.91,7A.54.54,0,0,1,222.68,229.07ZM243.35,197a.54.54,0,0,1-.61.08l-30.16-14.51c-.34-.16-.32-.37,0-.46l5.6-1.37a3.28,3.28,0,0,1,1.32,0l25.1,6.15a.78.78,0,0,1,.52.48A65.32,65.32,0,0,1,243.35,197Zm1.5-12.49-20.31-5c-.36-.09-.36-.23,0-.32l20.2-4.95a.56.56,0,0,1,.59.2c.15,1.83.25,3.67.25,5.54,0,1.45-.06,2.88-.16,4.31A.54.54,0,0,1,244.86,184.52Zm29.56-2.6,7.48,10c.79,1.05.36,1.9-1,1.9H258.59a2,2,0,0,1-2-2.34,76.09,76.09,0,0,0,0-22.94,2,2,0,0,1,2-2.34h22.35c1.31,0,1.74.85,1,1.9l-7.48,10A3.37,3.37,0,0,0,274.41,181.92Z"
  transform="translate(-54 -62.1)"/>
 </g>
</svg>
