<svg xmlns="http://www.w3.org/2000/svg" width="253" height="237" viewBox="0 0 253 237">
  <g transform="translate(-1)">
    <g transform="translate(21)">
      <path d="M1.11 60.56L5.11 54.75C7.43 51.35 8.9 50.24 11.63 49.75 13.6793239 49.4246368 15.7759178 49.8853875 17.5 51.04 18.9201847 51.9366626 19.8995233 53.3875346 20.2 55.04 20.2198428 55.3259543 20.376197 55.5848484 20.6200452 55.7355189 20.8638935 55.8861894 21.1653843 55.9101913 21.43 55.8 23.4271068 55.0550044 25.6661928 55.3791819 27.37 56.66 29.3314877 58.0597847 30.6157139 60.2183004 30.91 62.61 31.19 64.92 30.68 66.48 28.78 69.26L24 76.22C23.6290393 76.7598129 22.891588 76.8983643 22.35 76.53L1.42 62.21C.880187144 61.8390393.741635685 61.101588 1.11 60.56zM14.2 56.75C13.03 55.95 11.84 56.3 10.83 57.75L10.21 58.66C9.87552932 59.1961266 10.0362899 59.9016868 10.57 60.24L12.28 61.41C12.7476941 61.7904939 13.4345224 61.723595 13.82 61.26L14.38 60.44C15.53 58.77 15.47 57.61 14.2 56.75zM23.2 62.08C21.9 61.19 20.53 61.56 19.47 63.08L18.61 64.33C18.2416357 64.871588 18.3801871 65.6090393 18.92 65.98L20.92 67.36C21.461588 67.7283643 22.1990393 67.5898129 22.57 67.05L23.26 66.05C24.53 64.32 24.48 62.9 23.24 62.08L23.2 62.08zM20.11 36.17L24.83 32.06C27.97 29.33 30.42 28.41 33.61 28.72 36.1659612 28.9743702 38.5327021 30.180944 40.24 32.1 42.492057 34.6004892 43.3004016 38.0831701 42.38 41.32 42.2883146 41.6145426 42.322174 41.9338601 42.4735908 42.2026249 42.6250076 42.4713897 42.8805735 42.6658022 43.18 42.74L51.1 44.68C51.74 44.84 51.85 45.31 51.36 45.74L47.07 49.48C46.5035701 49.9204922 45.7657735 50.0754295 45.07 49.9L38.45 47.77C37.83 47.57 37.67 47.77 38.1 48.3L41.78 52.53C41.9871142 52.7685862 42.090849 53.0797418 42.0683391 53.3948814 42.0458291 53.710021 41.8989223 54.0032736 41.66 54.21L38.34 57.1C38.1014138 57.3071142 37.7902582 57.410849 37.4751186 57.3883391 37.159979 57.3658291 36.8667264 57.2189223 36.66 56.98L20 37.84C19.5729036 37.3472224 19.6219573 36.602499 20.11 36.17zM35.18 36.61C34.5157952 35.8430381 33.5678189 35.3797413 32.5546024 35.3269106 31.541386 35.27408 30.5503673 35.6362746 29.81 36.33L29.2 36.86C28.86 37.15 28.94 37.79 29.37 38.29L32.81 42.24C33.24 42.73 33.87 42.89 34.22 42.59L34.85 42.04C35.6325437 41.3753031 36.1101307 40.42019 36.1724144 39.3953401 36.2346981 38.3704902 35.8762899 37.3645708 35.18 36.61L35.18 36.61zM75.16 18.47C78.3720145 25.7940428 75.0522679 34.336199 67.7374619 37.5691932 60.4226558 40.8021875 51.8710193 37.5069391 48.6170718 30.2014298 45.3631244 22.8959206 48.6338476 14.334874 55.93 11.06 59.4626088 9.49195045 63.4735012 9.39175593 67.0799966 10.7814663 70.686492 12.1711767 73.5930422 14.9369068 75.16 18.47L75.16 18.47zM54.81 27.47C55.8592201 30.1166279 58.2767053 31.9735914 61.1043728 32.3049503 63.9320403 32.6363091 66.7133493 31.3885639 68.3460286 29.0562131 69.978708 26.7238623 70.1991537 23.6834756 68.92 21.14 67.8707799 18.4933721 65.4532947 16.6364086 62.6256272 16.3050497 59.7979597 15.9736909 57.0166507 17.2214361 55.3839714 19.5537869 53.751292 21.8861377 53.5308463 24.9265244 54.81 27.47L54.81 27.47zM96.76 28.01L95.76 19.72C95.6621255 19.0849688 95.0778152 18.6423095 94.44 18.72L92.01 19.01C91.3749688 19.1078745 90.9323095 19.6921848 91.01 20.33L92.01 28.62C92.0876905 29.2578152 91.6450312 29.8421255 91.01 29.94L86.64 30.47C86.0021848 30.5476905 85.4178745 30.1050312 85.32 29.47L84.32 21.18C84.2092088 20.400329 84.0113047 19.6355469 83.73 18.9L82.08 14.9C81.83 14.29 82.03 13.75 82.52 13.69 82.7568154 13.6625655 82.9727244 13.5412694 83.1193475 13.3532911 83.2659706 13.1653127 83.3310489 12.9263687 83.3 12.69L83.19 11.8C82.4813042 8.36634044 83.7858227 4.82836211 86.5539421 2.67666909 89.3220615.524976065 93.0725189.133659805 96.2251896 1.6675878 99.3778603 3.20151579 101.384624 6.39400067 101.4 9.9L103.49 27.17C103.567691 27.8078152 103.125031 28.3921255 102.49 28.49L98.12 29.02C97.8053918 29.0685915 97.484431 28.9891043 97.228861 28.799306 96.9732909 28.6095077 96.8044217 28.325224 96.76 28.01zM91.88 7.81C90.35 7.99 89.62 9.17 89.88 11.11L89.98 11.89C90.03 12.32 90.6 12.61 91.25 12.53L93.68 12.24C94.33 12.16 94.82 11.75 94.76 11.31L94.66 10.53C94.4 8.55 93.45 7.62 91.88 7.81zM114.28 1.02L118.66 1.65C124.05 2.42 127.1 3.99 129.66 7.3 131.911394 10.2730903 132.869664 14.0280259 132.318291 17.71639 131.766918 21.404754 129.752432 24.7152929 126.73 26.9 123.36 29.32 120.25 29.9 114.73 29.09L110.39 28.47C109.746165 28.3721992 109.300528 27.7750455 109.39 27.13L112.98 2.02C113.077762 1.39358716 113.649469.953812603 114.28 1.02L114.28 1.02zM117.98 23.02C121.830796 23.2906699 125.209856 20.4762568 125.64 16.64 126.19 12.76 124.01 9.64 120.06 8.5 119.759194 8.41916766 119.438059 8.47472845 119.181895 8.65192454 118.925731 8.82912063 118.760467 9.11001589 118.73 9.42L117 21.75C116.944926 22.0530786 117.023144 22.3651898 117.214641 22.6064755 117.406138 22.8477612 117.692333 22.9948109 118 23.01L117.98 23.02zM149.14 38.03L149.61 28.59C149.61 27.93 149.28 27.77 148.8 28.21L141.87 34.68C141.327963 35.1373482 140.577144 35.2567092 139.92 34.99L137.81 33.99C137.201279 33.6921901 136.890513 33.0034645 137.07 32.35L144.36 7.76C144.436227 7.46714327 144.640968 7.22455649 144.916856 7.10021261 145.192744 6.97586874 145.5101 6.98314405 145.78 7.12L149.78 8.94C150.379578 9.23475401 150.676261 9.921365 150.48 10.56L146.68 21.9C146.47 22.52 146.68 22.67 147.18 22.22L154.8 15.14C155.28 14.69 155.65 14.86 155.62 15.52L155.16 25.9C155.16 26.56 155.38 26.63 155.72 26.07L161.81 15.82C162.165651 15.2505362 162.885736 15.0289716 163.5 15.3L167.42 17.11C167.701556 17.2251557 167.915387 17.4622076 168.00101 17.7541037 168.086633 18.0459997 168.034737 18.3609985 167.86 18.61L154 40.19C153.622244 40.7496158 152.898892 40.9598924 152.28 40.69L150.13 39.69C149.522185 39.3583868 149.142883 38.7223857 149.14 38.03L149.14 38.03zM169.88 52.42L175.36 46.11C175.567114 45.8714138 175.670849 45.5602582 175.648339 45.2451186 175.625829 44.929979 175.478922 44.6367264 175.24 44.43L173.39 42.83C173.151414 42.6228858 172.840258 42.519151 172.525119 42.5416609 172.209979 42.5641709 171.916726 42.7110777 171.71 42.95L166.23 49.26C166.023274 49.4989223 165.730021 49.6458291 165.414881 49.6683391 165.099742 49.690849 164.788586 49.5871142 164.55 49.38L161.23 46.49C160.991078 46.2832736 160.844171 45.990021 160.821661 45.6748814 160.799151 45.3597418 160.902886 45.0485862 161.11 44.81L166.59 38.5C167.094199 37.8842248 167.526962 37.2132739 167.88 36.5L169.76 32.57C170.04 31.98 170.57 31.76 170.95 32.08 171.128656 32.2359743 171.362176 32.3141922 171.598735 32.297295 171.835295 32.2803979 172.055327 32.1697835 172.21 31.99L172.8 31.31C174.966311 28.7206832 178.376798 27.5258658 181.685405 28.1971193 184.994013 28.8683729 187.669198 31.2978571 188.655115 34.5267011 189.641032 37.7555451 188.779289 41.2650188 186.41 43.67L175 56.9C174.793274 57.1389223 174.500021 57.2858291 174.184881 57.3083391 173.869742 57.330849 173.558586 57.2271142 173.32 57.02L170 54.1C169.761078 53.8932736 169.614171 53.600021 169.591661 53.2848814 169.569151 52.9697418 169.672886 52.6585862 169.88 52.42zM181.6 35.26C180.44 34.26 179.07 34.49 177.79 35.97L177.27 36.57C176.98 36.9 177.15 37.52 177.65 37.95L179.5 39.55C180 39.98 180.63 40.06 180.91 39.73L181.43 39.13C182.74 37.62 182.79 36.29 181.6 35.26zM181.58 65.21L189.7 59.49C190.320821 59.0188261 190.843898 58.4312132 191.24 57.76L198.32 44.76C198.412387 44.5032041 198.649348 44.3265197 198.921831 44.3112607 199.194313 44.2960017 199.44952 44.4451247 199.57 44.69L202.39 48.69C202.769174 49.2962213 202.795863 50.0587524 202.46 50.69L198.9 56.6C198.56 57.16 198.81 57.52 199.46 57.4L206.31 56.14C207.018154 56.0446689 207.723372 56.3343803 208.16 56.9L210.91 60.81C211.098015 61.0065848 211.150783 61.2963022 211.044155 61.546553 210.937526 61.7968037 210.69202 61.9594299 210.42 61.96L195.75 64.22C194.98429 64.3643412 194.254026 64.6564469 193.6 65.08L185.48 70.8C185.22155 70.9820895 184.901263 71.0538488 184.589827 70.9994412 184.27839 70.9450335 184.001404 70.7689316 183.82 70.51L181.29 66.91C181.09495 66.6488447 181.015562 66.3191126 181.070374 65.9977991 181.125186 65.6764856 181.3094 65.3917209 181.58 65.21z"/>
    </g>
    <g transform="translate(47 184)">
      <path d="M17.82 1.99L23.48 6.18C26.79 8.63 27.85 10.18 28.2 12.88 28.4461189 14.9377073 27.9068814 17.0125217 26.69 18.69 25.7475483 20.0695983 24.2725333 20.9937477 22.62 21.24 22.3346634 21.2509162 22.0718914 21.3980782 21.9134993 21.6356662 21.7551073 21.8732543 21.7203317 22.1724138 21.82 22.44 22.4925343 24.465193 22.0853214 26.6935522 20.74 28.35 19.2698538 30.256678 17.0685294 31.4606972 14.67 31.67 12.35 31.87 10.81 31.3 8.1 29.29L1.33 24.29C.804080498 23.8997295.692352558 23.1578559 1.08 22.63L16.16 2.24C16.5502705 1.7140805 17.2921441 1.60235256 17.82 1.99L17.82 1.99zM15.49 24.05C16.43 22.78 16.1 21.4 14.6 20.29L13.38 19.39C12.8521441 19.0023526 12.1102705 19.1140805 11.72 19.64L10.27 21.64C9.88235256 22.1678559 9.9940805 22.9097295 10.52 23.3L11.52 24.03C13.2 25.26 14.6 25.26 15.49 24.05zM21.15 15.21C21.99 14.07 21.69 12.87 20.25 11.81L19.36 11.15C18.8373842 10.7971762 18.1281206 10.9309995 17.77 11.45L16.54 13.12C16.1460983 13.5778314 16.1905336 14.2665795 16.64 14.67L17.44 15.26C19.08 16.47 20.23 16.44 21.15 15.21L21.15 15.21zM26.27 39.05L36.94 16.05C37.0725822 15.7635428 37.313543 15.5414969 37.6098601 15.4327223 37.9061772 15.3239476 38.2335709 15.3373571 38.52 15.47L42.52 17.32C42.8064572 17.4525822 43.0285031 17.693543 43.1372777 17.9898601 43.2460524 18.2861772 43.2326429 18.6135709 43.1 18.9L32.43 41.9C32.2974178 42.1864572 32.056457 42.4085031 31.7601399 42.5172777 31.4638228 42.6260524 31.1364291 42.6126429 30.85 42.48L26.85 40.63C26.5635428 40.4974178 26.3414969 40.256457 26.2327223 39.9601399 26.1239476 39.6638228 26.1373571 39.3364291 26.27 39.05zM59.29 51.6C58.1427824 51.605251 56.999789 51.4606959 55.89 51.17 48.0972626 49.237003 43.3470042 41.3527377 45.2800008 33.5600002 47.2129973 25.7672627 55.0972624 21.0170039 62.89 22.95 63.9512501 23.1932029 64.9764703 23.5730386 65.94 24.08 66.5324083 24.4573075 66.8275774 25.16332 66.68 25.85L65.68 30.01C65.6395425 30.2914806 65.4527015 30.5303265 65.1892392 30.6373581 64.9257769 30.7443896 64.6253001 30.7035166 64.4 30.53 63.5603977 30.0109901 62.641624 29.6326716 61.68 29.41 58.7987828 28.4148041 55.6023882 29.1434555 53.4371457 31.2890446 51.2719032 33.4346336 50.5141373 36.6242514 51.4830209 39.5144231 52.4519046 42.4045947 54.9790433 44.493001 58 44.9 58.9125546 45.1407906 59.8587119 45.2286481 60.8 45.16 61.0685267 45.1164247 61.3407948 45.2122932 61.5227795 45.4144984 61.7047642 45.6167037 61.7715225 45.8975311 61.7 46.16L60.7 50.28C60.5524999 50.9716872 59.9899001 51.4983764 59.29 51.6zM77.51 51.63L77.35 41.7C77.310116 40.9241196 77.1199285 40.1633693 76.79 39.46L70 26.27C69.8426219 26.0499512 69.8306545 25.7575432 69.9695245 25.5253698 70.1083946 25.2931964 70.3716829 25.1654273 70.64 25.2L75.54 25.12C76.2482915 25.1505998 76.8874531 25.5538803 77.22 26.18L80.1 32.44C80.37 33.04 80.81 33.03 81.1 32.44L83.91 26.07C84.2275743 25.4275056 84.8646597 25.0040536 85.58 24.96L90.35 24.88C90.6037237 24.8564712 90.849309 24.9767673 90.9862478 25.1916558 91.1231865 25.4065444 91.1284948 25.6799582 91 25.9L84.62 39.3C84.3116643 40.0144327 84.1452404 40.7820201 84.13 41.56L84.29 51.49C84.2953491 51.8056205 84.1750763 52.1104345 83.9556493 52.3373633 83.7362222 52.5642922 83.435622 52.69474 83.12 52.7L78.72 52.77C78.0740952 52.7814235 77.5370421 52.2754396 77.51 51.63L77.51 51.63zM116.76 47.65C115.742372 48.1789581 114.659826 48.5723057 113.54 48.82 105.839025 50.4125163 98.2674393 45.5935899 96.4494095 37.9427146 94.6313797 30.2918393 99.2258268 22.5819743 106.82 20.54 107.878444 20.2696513 108.967635 20.1385449 110.06 20.15 110.761514 20.2142567 111.348438 20.709349 111.53 21.39L112.53 25.55C112.601522 25.8124689 112.534764 26.0932963 112.35278 26.2955016 112.170795 26.4977068 111.898527 26.5935753 111.63 26.55 110.646236 26.4732191 109.656536 26.5576645 108.7 26.8 105.701814 27.267102 103.225961 29.3902294 102.30711 32.2821175 101.38826 35.1740055 102.184592 38.3368168 104.363317 40.4487977 106.542041 42.5607786 109.72809 43.2583525 112.59 42.25 113.512009 42.0465151 114.393945 41.6917132 115.2 41.2 115.4253 41.0264834 115.725777 40.9856104 115.989239 41.0926419 116.252702 41.1996735 116.439543 41.4385194 116.48 41.72L117.48 45.84C117.646821 46.5348786 117.358544 47.259576 116.76 47.65L116.76 47.65zM127.78 41.82L116.49 19.11C116.201613 18.5217155 116.442994 17.8109811 117.03 17.52L120.97 15.52C121.558285 15.2316125 122.269019 15.472994 122.56 16.06L131 33.03C131.290981 33.617006 132.001715 33.8583875 132.59 33.57L137.02 31.37C137.608285 31.0816125 138.319019 31.322994 138.61 31.91L140.42 35.55C140.708387 36.1382845 140.467006 36.8490189 139.88 37.14L129.39 42.36C129.105397 42.504883 128.774503 42.5292917 128.471722 42.4277376 128.16894 42.3261835 127.919684 42.1071905 127.78 41.82L127.78 41.82zM148.86 30.09L143.62 23.48C143.118663 22.8728737 142.551904 22.3228831 141.93 21.84L138.47 19.29C137.94 18.9 137.82 18.34 138.2 18.04 138.576141 17.614397 138.554191 16.9690611 138.15 16.57L133.15 10.22C132.742177 9.7061265 132.827165 8.95912798 133.34 8.55L143.08.83C143.593874.422177067 144.340872.507164923 144.75 1.02L147.28 4.21C147.472744 4.46926785 147.551791 4.79575844 147.498986 5.11447694 147.44618 5.43319544 147.266061 5.71674705 147 5.9L142.57 9.41C142.057165 9.81912798 141.972177 10.5661265 142.38 11.08L143.38 12.38C143.789128 12.8928351 144.536126 12.9778229 145.05 12.57L148.95 9.47C149.520716 9.07171488 150.279284 9.07171488 150.85 9.47L154.36 11.99C154.603288 12.1464005 154.750353 12.4157769 154.750353 12.705 154.750353 12.9942231 154.603288 13.2635995 154.36 13.42L149.02 17.65C148.507165 18.059128 148.422177 18.8061265 148.83 19.32L150.07 20.88C150.479128 21.3928351 151.226126 21.4778229 151.74 21.07L156.17 17.56C156.683874 17.1521771 157.430872 17.2371649 157.84 17.75L160.37 20.94C160.777823 21.4538735 160.692835 22.200872 160.18 22.61L150.44 30.33C149.929966 30.6681516 149.246616 30.5643515 148.86 30.09L148.86 30.09z"/>
    </g>
    <path d="M236.25,120.82 C235.463207,119.671859 235.463207,118.158141 236.25,117.01 L252.61,95.12 C253.4,94.07 252.97,93.22 251.61,93.22 L202.41,93.22 C201.006331,93.1448771 199.766463,92.2808445 199.21,90.99 C187.679315,61.1306477 158.968399,41.4405376 126.96,41.4405376 C94.9516009,41.4405376 66.2406849,61.1306477 54.71,90.99 C54.1535367,92.2808445 52.9136693,93.1448771 51.51,93.22 L2.35,93.22 C1.04,93.22 0.61,94.07 1.35,95.12 L17.71,117.01 C18.4967926,118.158141 18.4967926,119.671859 17.71,120.82 L1.39,142.7 C0.6,143.75 1.03,144.6 2.39,144.6 L51.59,144.6 C52.9936693,144.675123 54.2335367,145.539155 54.79,146.83 C66.3206849,176.689352 95.0316009,196.379462 127.04,196.379462 C159.048399,196.379462 187.759315,176.689352 199.29,146.83 C199.846463,145.539155 201.086331,144.675123 202.49,144.6 L251.69,144.6 C253,144.6 253.43,143.75 252.69,142.7 L236.25,120.82 Z M50.4,130.38 C50.5012177,130.966355 50.3360958,131.56733 49.9494947,132.019654 C49.5628937,132.471977 48.9949634,132.728672 48.4,132.72 L26.06,132.72 C24.75,132.72 24.32,131.87 25.06,130.82 L32.54,120.82 C33.3267926,119.671859 33.3267926,118.158141 32.54,117.01 L25.06,107.01 C24.27,105.96 24.7,105.11 26.06,105.11 L48.41,105.11 C49.0049634,105.101328 49.5728937,105.358023 49.9594947,105.810346 C50.3460958,106.26267 50.5112177,106.863645 50.41,107.45 C49.2506984,115.052727 49.2506984,122.787273 50.41,130.39 L50.4,130.38 Z M159.76,175.73 C159.543095,175.712628 159.357809,175.566764 159.29,175.36 L148.22,143.77 C148.1,143.42 148.22,143.29 148.58,143.48 L153.51,146.48 C153.879435,146.724245 154.195755,147.040565 154.44,147.41 L167.84,169.51 C167.947262,169.727494 167.947262,169.982506 167.84,170.2 C165.285,172.245476 162.580814,174.097292 159.75,175.74 L159.76,175.73 Z M148.52,180.9 C148.268351,180.867438 148.048269,180.714499 147.93,180.49 L131.73,147.9 C131.555717,147.500634 131.506894,147.057739 131.59,146.63 L134.3,135.56 C134.324703,135.398065 134.431937,135.260673 134.583024,135.19738 C134.734111,135.134087 134.907253,135.154024 135.04,135.25 L144.2,140.81 C144.563636,141.055149 144.845706,141.403384 145.01,141.81 L157.16,176.49 C157.235902,176.727614 157.195123,176.987118 157.05,177.19 C154.298562,178.62805 151.447985,179.867867 148.52,180.9 Z M135.61,183.9 C135.371266,183.817524 135.188161,183.623208 135.12,183.38 L129,158.47 C128.910826,158.034518 128.910826,157.585482 129,157.15 L130.37,151.56 C130.46,151.2 130.67,151.17 130.83,151.51 L145.61,181.2 C145.722684,181.405146 145.690382,181.659529 145.53,181.83 C142.282053,182.776352 138.965368,183.468442 135.61,183.9 L135.61,183.9 Z M127,184.48 C125.55,184.48 124.12,184.42 122.69,184.32 C122.509316,184.186989 122.429702,183.956109 122.49,183.74 L127.49,163.43 C127.58,163.07 127.72,163.07 127.81,163.43 L132.76,183.64 C132.818972,183.859022 132.740001,184.091986 132.56,184.23 C130.71,184.41 128.87,184.51 127,184.51 L127,184.48 Z M110,182.24 C109.848787,182.073221 109.816907,181.830131 109.92,181.63 L124.43,151.47 C124.59,151.13 124.8,151.15 124.89,151.47 L126.26,157.07 C126.349174,157.505482 126.349174,157.954518 126.26,158.39 L120.11,183.49 C120.04236,183.730118 119.863948,183.923398 119.63,184.01 C116.381035,183.671422 113.162017,183.089792 110,182.27 L110,182.24 Z M98.41,177.93 C98.2479937,177.727523 98.1956705,177.458432 98.27,177.21 L109.83,142.75 C109.988898,142.343143 110.267946,141.994332 110.63,141.75 L120.38,135.84 C120.512747,135.744024 120.685889,135.724087 120.836976,135.78738 C120.988063,135.850673 121.095297,135.988065 121.12,136.15 L123.67,146.56 C123.753147,146.986877 123.707909,147.428821 123.54,147.83 L107.6,180.98 C107.481591,181.2061 107.262404,181.362131 107.01,181.4 C104.065372,180.458759 101.191448,179.30919 98.41,177.96 L98.41,177.93 Z M87.13,170.93 C87.0073245,170.702128 87.0073245,170.427872 87.13,170.2 L100.45,148.25 C100.694031,147.88039 101.01039,147.564031 101.38,147.32 L106.3,144.32 C106.62,144.13 106.78,144.26 106.67,144.61 L96.12,176.06 C96.0541298,176.287918 95.8472142,176.446147 95.61,176.45 C92.6475264,174.850109 89.8124983,173.024725 87.13,170.99 L87.13,170.93 Z M94.25,62.04 C94.4669051,62.0573722 94.652191,62.2032355 94.72,62.41 L105.79,94 C105.91,94.35 105.79,94.48 105.43,94.29 L100.5,91.29 C100.13039,91.045969 99.814031,90.7296101 99.57,90.36 L86.17,68.26 C86.0627379,68.0425056 86.0627379,67.7874944 86.17,67.57 C88.7239397,65.5487915 91.4247284,63.720411 94.25,62.1 L94.25,62.04 Z M105.48,56.9 C105.731031,56.9341575 105.950451,57.086636 106.07,57.31 L122.27,89.9 C122.444283,90.2993656 122.493106,90.7422607 122.41,91.17 L119.7,102.24 C119.675297,102.401935 119.568063,102.539327 119.416976,102.60262 C119.265889,102.665913 119.092747,102.645976 118.96,102.55 L109.8,96.99 C109.436364,96.7448512 109.154294,96.3966163 108.99,95.99 L96.84,61.31 C96.7674345,61.0754042 96.8080868,60.8204036 96.95,60.62 C99.7026695,59.1986849 102.55324,57.9755796 105.48,56.96 L105.48,56.9 Z M118.39,53.9 C118.624892,53.9851875 118.803846,54.179054 118.87,54.42 L125,79.37 C125.089174,79.8054818 125.089174,80.2545182 125,80.69 L123.63,86.28 C123.54,86.64 123.33,86.67 123.17,86.33 L108.39,56.64 C108.277316,56.4348544 108.309618,56.1804705 108.47,56.01 C111.716906,55.050323 115.033592,54.3448586 118.39,53.9 L118.39,53.9 Z M127,53.32 C128.45,53.32 129.88,53.38 131.31,53.48 C131.490684,53.6130111 131.570298,53.8438914 131.51,54.06 L126.51,74.37 C126.42,74.73 126.28,74.73 126.19,74.37 L121.24,54.16 C121.181028,53.9409782 121.259999,53.7080139 121.44,53.57 C123.29,53.42 125.13,53.32 127,53.32 Z M144,55.56 C144.151213,55.726779 144.183093,55.9698694 144.08,56.17 L129.57,86.33 C129.41,86.67 129.2,86.65 129.11,86.33 L127.74,80.73 C127.650826,80.2945182 127.650826,79.8454818 127.74,79.41 L133.89,54.31 C133.95764,54.0698818 134.136052,53.8766024 134.37,53.79 C137.619783,54.1380956 140.838835,54.7297594 144,55.56 Z M155.59,59.9 C155.752006,60.1024774 155.804329,60.3715684 155.73,60.62 L144.17,95.08 C144.011102,95.4868571 143.732054,95.8356676 143.37,96.08 L133.62,101.99 C133.487253,102.085976 133.314111,102.105913 133.163024,102.04262 C133.011937,101.979327 132.904703,101.841935 132.88,101.68 L130.33,91.27 C130.246853,90.8431228 130.292091,90.4011786 130.46,90 L146.4,56.9 C146.517133,56.6727902 146.736965,56.5162996 146.99,56.48 C149.934038,57.4149071 152.807939,58.5577839 155.59,59.9 L155.59,59.9 Z M186,147.5 C185.797523,147.662006 185.528432,147.714329 185.28,147.64 L150.82,136.08 C150.413143,135.921102 150.064332,135.642054 149.82,135.28 L144,125.54 C143.904024,125.407253 143.884087,125.234111 143.94738,125.083024 C144.010673,124.931937 144.148065,124.824703 144.31,124.8 L154.72,122.25 C155.146877,122.166853 155.588821,122.212091 155.99,122.38 L189.11,138.31 C189.33721,138.427133 189.4937,138.646965 189.53,138.9 C188.559618,141.847066 187.379949,144.721047 186,147.5 L186,147.5 Z M178.3,158.77 L156.3,145.45 C155.93039,145.205969 155.614031,144.88961 155.37,144.52 L152.37,139.6 C152.18,139.28 152.31,139.12 152.66,139.23 L184.11,149.78 C184.337918,149.84587 184.496147,150.052786 184.5,150.29 C182.872058,153.262272 181.016517,156.104091 178.95,158.79 C178.755531,158.864784 178.539057,158.857568 178.35,158.77 L178.3,158.77 Z M127.84,138.9 C127.68,139.24 127.41,139.24 127.24,138.9 L124.79,133.98 C124.600154,133.625505 124.723673,133.184367 125.07,132.98 L127.62,131.44 C127.982388,131.246221 128.417612,131.246221 128.78,131.44 L130.23,132.32 C130.575678,132.52437 130.702706,132.962399 130.52,133.32 L127.84,138.9 Z M128.75,148.26 L127.75,152.15 C127.66,152.51 127.52,152.51 127.43,152.15 L126.43,148.15 C126.346853,147.723123 126.392091,147.281179 126.56,146.88 L127.21,145.52 C127.37,145.18 127.64,145.18 127.81,145.52 L128.53,146.98 C128.733531,147.373786 128.810372,147.820856 128.75,148.26 L128.75,148.26 Z M125.94,142.84 L125.74,143.26 C125.58,143.6 125.37,143.58 125.28,143.26 L124.05,138.26 C123.96,137.9 124.05,137.87 124.19,138.21 L125.93,141.71 C126.076709,142.071124 126.083838,142.47391 125.95,142.84 L125.94,142.84 Z M129.18,141.6 L131.34,137.12 C131.5,136.78 131.56,136.8 131.47,137.12 L129.95,143.32 C129.86,143.68 129.65,143.71 129.49,143.37 L129.19,142.78 C129.033351,142.402932 129.029764,141.979669 129.18,141.6 L129.18,141.6 Z M120.63,126.9 C116.249292,123.381868 115.542842,116.981706 119.050775,112.592827 C122.558708,108.203947 128.957209,107.482613 133.354236,110.980328 C137.751263,114.478043 138.487478,120.874849 135,125.28 C133.314847,127.408573 130.849958,128.776685 128.15217,129.08082 C125.454381,129.384954 122.746762,128.599964 120.63,126.9 L120.63,126.9 Z M75.71,159.81 C73.6630374,157.24556 71.8111827,154.531289 70.17,151.69 C70.1873722,151.473095 70.3332355,151.287809 70.54,151.22 L102.13,140.15 C102.48,140.03 102.61,140.15 102.42,140.51 L99.42,145.44 C99.1757545,145.809435 98.859435,146.125755 98.49,146.37 L76.39,159.77 C76.1810632,159.877181 75.9349579,159.884527 75.72,159.79 L75.71,159.81 Z M69.4,149.11 C69.1623858,149.185902 68.9028817,149.145123 68.7,149 C67.2749882,146.244301 66.0485371,143.390379 65.03,140.46 C65.0625625,140.208351 65.2155007,139.988269 65.44,139.87 L98,123.65 C98.3993656,123.475717 98.8422607,123.426894 99.27,123.51 L110.34,126.22 C110.501935,126.244703 110.639327,126.351937 110.70262,126.503024 C110.765913,126.654111 110.745976,126.827253 110.65,126.96 L105.09,136.12 C104.844851,136.483636 104.496616,136.765706 104.09,136.93 L69.4,149.11 Z M62,127.53 C62.0824762,127.291266 62.2767916,127.108161 62.52,127.04 L87.45,120.9 C87.8854537,120.810549 88.3345463,120.810549 88.77,120.9 L94.36,122.27 C94.72,122.36 94.75,122.57 94.41,122.73 L64.72,137.51 C64.5148544,137.622684 64.2604705,137.590382 64.09,137.43 C63.138096,134.189081 62.4393284,130.879129 62,127.53 L62,127.53 Z M68,90.33 C68.2024774,90.1679937 68.4715684,90.1156705 68.72,90.19 L103.18,101.75 C103.586857,101.908898 103.935668,102.187946 104.18,102.55 L110.09,112.3 C110.185976,112.432747 110.205913,112.605889 110.14262,112.756976 C110.079327,112.908063 109.941935,113.015297 109.78,113.04 L99.37,115.59 C98.9431228,115.673147 98.5011786,115.627909 98.1,115.46 L64.98,99.53 C64.7527902,99.4128671 64.5962996,99.1930351 64.56,98.94 C65.5007634,95.9919566 66.6503395,93.1146745 68,90.33 L68,90.33 Z M75.7,79.06 L97.7,92.38 C98.069435,92.6242455 98.3857545,92.940565 98.63,93.31 L101.63,98.23 C101.82,98.55 101.69,98.71 101.34,98.59 L69.89,88.04 C69.6620822,87.9741298 69.5038526,87.7672142 69.5,87.53 C71.1277016,84.5575837 72.9832543,81.7157463 75.05,79.03 C75.2458125,78.95835 75.4623113,78.969175 75.65,79.06 L75.7,79.06 Z M102.5,121.4 L103.09,121.1 C103.480038,120.935535 103.919962,120.935535 104.31,121.1 L108.79,123.26 C109.13,123.42 109.11,123.48 108.79,123.39 L102.59,121.87 C102.19,121.78 102.16,121.57 102.5,121.4 Z M102.7,117.2 L107.7,115.97 C108.06,115.88 108.09,115.97 107.75,116.11 L104.25,117.85 C103.859962,118.014465 103.420038,118.014465 103.03,117.85 L102.61,117.65 C102.31,117.5 102.34,117.29 102.7,117.2 Z M107.01,119.75 C106.67,119.59 106.67,119.32 107.01,119.15 L111.93,116.7 C112.284495,116.510154 112.725633,116.633673 112.93,116.98 L114.47,119.53 C114.663779,119.892388 114.663779,120.327612 114.47,120.69 L113.59,122.14 C113.38563,122.485678 112.947601,122.612706 112.59,122.43 L107.01,119.75 Z M114.32,111.21 L112.32,105.37 C112.2,105.02 112.38,104.83 112.74,104.94 L117.95,106.69 C118.311314,106.817638 118.518303,107.197117 118.43,107.57 L117.72,110.46 C117.600753,110.853118 117.293118,111.160753 116.9,111.28 L115.25,111.68 C114.867273,111.795033 114.460839,111.594001 114.32,111.22 L114.32,111.21 Z M115.4,103.35 L111.69,102.11 C111.295652,101.952753 110.981796,101.642504 110.82,101.25 L110.67,100.81 C110.55,100.46 110.67,100.33 111.03,100.52 L115.47,103.21 C115.79,103.41 115.76,103.47 115.4,103.35 L115.4,103.35 Z M111.06,109.11 C111.18,109.46 111.13,109.49 110.93,109.17 L107.62,103.71 C107.43,103.39 107.56,103.23 107.91,103.35 L108.54,103.56 C108.934348,103.717247 109.248204,104.027496 109.41,104.42 L111.06,109.11 Z M107.55,100.72 L106,100.2 C105.593143,100.041102 105.244332,99.7620538 105,99.4 L102.93,95.98 C102.74,95.66 102.84,95.56 103.16,95.75 L106.66,97.87 C107.023636,98.1151488 107.305706,98.4633837 107.47,98.87 L107.97,100.29 C108.09,100.65 107.91,100.84 107.55,100.72 Z M99,118.55 L100.36,119.2 C100.7,119.36 100.7,119.63 100.36,119.8 L98.9,120.52 C98.5006344,120.694283 98.0577393,120.743106 97.63,120.66 L93.74,119.66 C93.38,119.57 93.38,119.43 93.74,119.34 L97.74,118.34 C98.1715258,118.283844 98.6100126,118.356925 99,118.55 L99,118.55 Z M103.82,142.75 L105.94,139.25 C106.185149,138.886364 106.533384,138.604294 106.94,138.44 L108.36,137.94 C108.71,137.82 108.9,138 108.79,138.36 L108.27,139.9 C108.111102,140.306857 107.832054,140.655668 107.47,140.9 L104.05,142.97 C103.75,143.17 103.64,143.07 103.84,142.75 L103.82,142.75 Z M108.59,134.89 L111.28,130.45 C111.47,130.13 111.54,130.16 111.42,130.51 L110.18,134.22 C110.022753,134.614348 109.712504,134.928204 109.32,135.09 L108.88,135.24 C108.54,135.37 108.41,135.21 108.61,134.9 L108.59,134.89 Z M111.42,138 L111.63,137.37 C111.787247,136.975652 112.097496,136.661796 112.49,136.5 L117.2,134.9 C117.55,134.78 117.58,134.83 117.26,135.03 L111.8,138.34 C111.48,138.49 111.31,138.36 111.43,138 L111.42,138 Z M113.42,133.64 C113.07,133.76 112.88,133.58 112.99,133.22 L114.74,128.01 C114.867638,127.648686 115.247117,127.441697 115.62,127.53 L118.51,128.24 C118.903118,128.359247 119.210753,128.666882 119.33,129.06 L119.73,130.71 C119.813538,131.08223 119.608185,131.458711 119.25,131.59 L113.42,133.64 Z M126.16,98.9 C126.32,98.56 126.59,98.56 126.76,98.9 L129.21,103.82 C129.399846,104.174495 129.276327,104.615633 128.93,104.82 L126.38,106.36 C126.017612,106.553779 125.582388,106.553779 125.22,106.36 L123.77,105.48 C123.424322,105.27563 123.297294,104.837601 123.48,104.48 L126.16,98.9 Z M125.25,89.54 L126.25,85.65 C126.34,85.29 126.48,85.29 126.57,85.65 L127.57,89.65 C127.653147,90.0768772 127.607909,90.5188214 127.44,90.92 L126.79,92.28 C126.63,92.62 126.36,92.62 126.19,92.28 L125.47,90.82 C125.27255,90.4349655 125.195875,89.9993118 125.25,89.57 L125.25,89.54 Z M128.06,94.96 L128.26,94.54 C128.42,94.2 128.63,94.22 128.72,94.54 L129.95,99.54 C130.04,99.9 129.95,99.93 129.81,99.59 L128.07,96.09 C127.930875,95.7377477 127.923772,95.3470769 128.05,94.99 L128.06,94.96 Z M124.82,96.2 L122.66,100.68 C122.5,101.02 122.44,101 122.53,100.68 L124.05,94.48 C124.14,94.12 124.35,94.09 124.51,94.43 L124.81,95.02 C124.974873,95.4057958 124.978474,95.8415319 124.82,96.23 L124.82,96.2 Z M169.3,68.77 C171.801959,70.8960153 174.141788,73.2057611 176.3,75.68 C176.328427,75.8981986 176.221615,76.1118227 176.03,76.22 L158.14,87.06 C157.82,87.25 157.72,87.15 157.91,86.83 L168.7,69.05 C168.824848,68.8512651 169.060376,68.751465 169.29,68.8 L169.3,68.77 Z M177.6,78.06 C177.817494,77.9527379 178.072506,77.9527379 178.29,78.06 C180.333279,80.624951 182.181773,83.3391947 183.82,86.18 C183.802628,86.3969051 183.656764,86.582191 183.45,86.65 L151.86,97.7 C151.51,97.82 151.38,97.7 151.57,97.34 L154.57,92.41 C154.814031,92.0403899 155.13039,91.724031 155.5,91.48 L177.6,78.06 Z M184.6,88.72 C184.837614,88.6440978 185.097118,88.684877 185.3,88.83 C186.725073,91.5856703 187.951526,94.4395965 188.97,97.37 C188.935843,97.6210311 188.783364,97.8404514 188.56,97.96 L156,114.18 C155.600634,114.354283 155.157739,114.403106 154.73,114.32 L143.66,111.61 C143.498065,111.585297 143.360673,111.478063 143.29738,111.326976 C143.234087,111.175889 143.254024,111.002747 143.35,110.87 L148.91,101.71 C149.155149,101.346364 149.503384,101.064294 149.91,100.9 L184.6,88.72 Z M146.21,121.72 L149.71,119.98 C150.100038,119.815535 150.539962,119.815535 150.93,119.98 L151.35,120.18 C151.69,120.34 151.67,120.55 151.35,120.64 L146.35,121.87 C145.89,121.95 145.87,121.9 146.21,121.72 L146.21,121.72 Z M142.08,121.12 C141.725505,121.309846 141.284367,121.186327 141.08,120.84 L139.54,118.29 C139.346221,117.927612 139.346221,117.492388 139.54,117.13 L140.42,115.68 C140.62437,115.334322 141.062399,115.207294 141.42,115.39 L147,118.07 C147.34,118.23 147.34,118.5 147,118.67 L142.08,121.12 Z M151.51,116.43 L150.92,116.73 C150.529962,116.894465 150.090038,116.894465 149.7,116.73 L145.22,114.57 C144.88,114.41 144.9,114.35 145.22,114.44 L151.42,115.96 C151.81,116.05 151.84,116.26 151.5,116.43 L151.51,116.43 Z M150.17,95.08 L148.05,98.58 C147.804851,98.9436361 147.456616,99.2257064 147.05,99.39 L145.63,99.89 C145.28,100.01 145.09,99.83 145.2,99.47 L145.72,97.93 C145.878898,97.5231429 146.157946,97.1743324 146.52,96.93 L149.94,94.86 C150.25,94.66 150.36,94.76 150.16,95.08 L150.17,95.08 Z M145.39,102.9 L142.7,107.34 C142.51,107.66 142.44,107.63 142.56,107.28 L143.8,103.57 C143.957247,103.175652 144.267496,102.861796 144.66,102.7 L145.1,102.55 C145.46,102.46 145.59,102.62 145.39,102.9 Z M142.56,99.79 L142.35,100.42 C142.192753,100.814348 141.882504,101.128204 141.49,101.29 L136.8,102.93 C136.45,103.05 136.42,103 136.74,102.8 L142.2,99.49 C142.52,99.35 142.68,99.48 142.57,99.83 L142.56,99.79 Z M140.56,104.14 C140.91,104.02 141.1,104.2 140.99,104.56 L139.24,109.77 C139.112362,110.131314 138.732883,110.338303 138.36,110.25 L135.47,109.54 C135.076882,109.420753 134.769247,109.113118 134.65,108.72 L134.25,107.07 C134.166462,106.69777 134.371815,106.321289 134.73,106.19 L140.56,104.14 Z M135.64,130.21 L136.35,127.32 C136.469247,126.926882 136.776882,126.619247 137.17,126.5 L138.82,126.1 C139.19223,126.016462 139.568711,126.221815 139.7,126.58 L141.7,132.42 C141.82,132.77 141.64,132.96 141.28,132.85 L136.07,131.1 C135.738535,130.963518 135.549986,130.61156 135.62,130.26 L135.64,130.21 Z M138.64,134.43 L142.35,135.67 C142.744348,135.827247 143.058204,136.137496 143.22,136.53 L143.37,136.97 C143.49,137.32 143.37,137.45 143.01,137.26 L138.57,134.57 C138.21,134.42 138.24,134.36 138.6,134.48 L138.64,134.43 Z M142.98,128.67 C142.86,128.32 142.91,128.29 143.11,128.61 L146.42,134.07 C146.61,134.39 146.48,134.55 146.13,134.43 L145.5,134.22 C145.105652,134.062753 144.791796,133.752504 144.63,133.36 L142.98,128.67 Z M146.49,137.06 L148.03,137.58 C148.436857,137.738898 148.785668,138.017946 149.03,138.38 L151.1,141.8 C151.29,142.12 151.19,142.22 150.87,142.03 L147.37,139.91 C147.006364,139.664851 146.724294,139.316616 146.56,138.91 L146.06,137.49 C145.91,137.18 146.09,136.99 146.45,137.11 L146.49,137.06 Z M155,119.28 L153.64,118.63 C153.3,118.47 153.3,118.2 153.64,118.03 L155.1,117.31 C155.499366,117.135717 155.942261,117.086894 156.37,117.17 L160.26,118.17 C160.62,118.26 160.62,118.4 160.26,118.49 L156.26,119.49 C155.828474,119.546156 155.389987,119.473075 155,119.28 Z M159.66,115.52 C159.3,115.43 159.27,115.22 159.61,115.06 L189.3,100.28 C189.505146,100.167316 189.759529,100.199618 189.93,100.36 C190.887428,103.61368 191.589559,106.937097 192.03,110.3 C191.947524,110.538734 191.753208,110.721839 191.51,110.79 L166.55,116.9 C166.114546,116.989451 165.665454,116.989451 165.23,116.9 L159.66,115.52 Z M166.88,66.9 C166.999118,67.1252197 166.999118,67.3947803 166.88,67.62 L153.56,89.62 C153.315755,89.989435 152.999435,90.3057545 152.63,90.55 L147.71,93.55 C147.39,93.74 147.23,93.61 147.34,93.26 L157.89,61.81 C157.95587,61.5820822 158.162786,61.4238526 158.4,61.42 C161.363149,63.0262739 164.198198,64.8583573 166.88,66.9 L166.88,66.9 Z M84.33,69.9 L95.17,87.79 C95.36,88.11 95.26,88.21 94.94,88.02 L77.16,77.23 C76.961388,77.1135646 76.854275,76.8874371 76.89,76.66 C79.0160153,74.1580415 81.3257611,71.8182121 83.8,69.66 C84.0049749,69.6339243 84.2068592,69.7271017 84.32,69.9 L84.33,69.9 Z M63.65,101.9 C63.816779,101.748787 64.0598694,101.716907 64.26,101.82 L94.42,116.33 C94.76,116.49 94.74,116.7 94.42,116.79 L88.82,118.16 C88.3845182,118.249174 87.9354818,118.249174 87.5,118.16 L62.4,112.01 C62.1598818,111.94236 61.9666024,111.763948 61.88,111.53 C62.2281328,108.280222 62.8197961,105.061173 63.65,101.9 L63.65,101.9 Z M62.15,114.39 L82.46,119.39 C82.82,119.48 82.82,119.62 82.46,119.71 L62.26,124.66 C62.0409782,124.718972 61.8080139,124.640001 61.67,124.46 C61.52,122.63 61.42,120.79 61.42,118.92 C61.42,117.47 61.48,116.04 61.58,114.61 C61.7098448,114.437304 61.9301314,114.35863 62.14,114.41 L62.15,114.39 Z M77.68,162.11 C77.6515727,161.891801 77.7583847,161.678177 77.95,161.57 L95.84,150.73 C96.16,150.54 96.26,150.64 96.07,150.96 L85.28,168.74 C85.162164,168.942447 84.930775,169.050163 84.7,169.01 C82.192244,166.894343 79.8457384,164.594634 77.68,162.13 L77.68,162.11 Z M169.68,167.95 L158.84,150.06 C158.65,149.74 158.75,149.64 159.07,149.83 L176.85,160.62 C177.048612,160.736435 177.155725,160.962563 177.12,161.19 C174.993985,163.691959 172.684239,166.031788 170.21,168.19 C170.005762,168.224372 169.79986,168.138903 169.68,167.97 L169.68,167.95 Z M190.35,135.9 C190.183221,136.051213 189.940131,136.083093 189.74,135.98 L159.58,121.47 C159.24,121.31 159.26,121.1 159.58,121.01 L165.18,119.64 C165.615454,119.550549 166.064546,119.550549 166.5,119.64 L191.6,125.79 C191.840118,125.85764 192.033398,126.036052 192.12,126.27 C191.771755,129.519761 191.180094,132.738803 190.35,135.9 Z M191.85,123.41 L171.54,118.41 C171.18,118.32 171.18,118.18 171.54,118.09 L191.74,113.14 C191.959022,113.081028 192.191986,113.159999 192.33,113.34 C192.48,115.17 192.58,117.01 192.58,118.88 C192.58,120.33 192.52,121.76 192.42,123.19 C192.297899,123.373932 192.076132,123.465015 191.86,123.42 L191.85,123.41 Z M221.41,120.81 L228.89,130.81 C229.68,131.86 229.25,132.71 227.89,132.71 L205.59,132.71 C204.995037,132.718672 204.427106,132.461977 204.040505,132.009654 C203.653904,131.55733 203.488782,130.956355 203.59,130.37 C204.749302,122.767273 204.749302,115.032727 203.59,107.43 C203.488782,106.843645 203.653904,106.24267 204.040505,105.790346 C204.427106,105.338023 204.995037,105.081328 205.59,105.09 L227.94,105.09 C229.25,105.09 229.68,105.94 228.94,106.99 L221.46,116.99 C220.648906,118.132183 220.628999,119.657032 221.41,120.82 L221.41,120.81 Z"/>
  </g>
</svg>
